<?xml version="1.0" encoding="UTF-8"?>
<svg id="Layer_1" xmlns="http://www.w3.org/2000/svg" version="1.1" viewBox="0 0 427.43 102.49">
  <!-- Generator: Adobe Illustrator 29.3.1, SVG Export Plug-In . SVG Version: 2.1.0 Build 151)  -->
  <g>
    <path d="M215.94,4.89l-1.17,6.84c-.18,1.11-.53,1.75-2.05,1.75h-4.79c-2.86,0-3.56.76-4.21,4.79l-.53,3.33h7.77c1.17,0,1.64.64,1.64,1.4,0,.18-.12.35-.12.53l-1.29,7.36c-.29,1.46-.76,1.81-2.22,1.81h-7.83l-7.42,41.66c-2.45,14.08-9.41,15.84-19.22,15.84-2.28,0-4.44-.47-6.43-.82-.76-.18-1.46-.53-1.46-1.4v-.18l1.17-7.01c.18-1.11.99-1.64,1.81-1.64h3.68c4.03,0,4.79-.47,5.49-4.79l7.36-41.66-7.01-1.11c-.82-.12-1.58-.64-1.58-1.75,0-.18.12-.47.12-.64l.99-5.73c.29-1.46.82-1.93,2.22-1.93h7.19l.53-3.33c2.28-13.79,9-15.84,19.22-15.84,2.28,0,4.5.47,6.54.82.76.18,1.46.64,1.46,1.4.12.12.12.23.12.29Z"/>
    <path d="M233.76,5.59l-11.8,66.79c-.18.99-1.11,1.93-2.1,1.93h-11.22c-.93,0-1.58-.76-1.58-1.64v-.29l11.8-66.79c.18-.99,1.17-1.81,2.22-1.81h11.22c.93,0,1.46.64,1.46,1.46,0,.12,0,.23,0,.35Z"/>
    <path d="M279.04,44.74l-1.17,6.43c-2.92,15.66-10.93,23.9-27.23,23.9-12.5,0-19.34-7.89-19.34-18.76,0-1.64.12-3.39.47-5.14l1.17-6.43c3.16-16.65,11.98-23.9,27.23-23.9,12.45,0,19.4,7.36,19.4,18.58.06,1.75-.35,4.21-.53,5.32ZM258.01,33.52c-5.32,0-8.76,3.16-10.23,11.22l-1.17,6.43c-.29,1.64-.47,3.16-.47,4.44,0,4.79,2.22,6.89,6.84,6.89,5.96,0,8.76-3.86,10.11-11.34l1.17-6.43c.29-1.58.47-3.04.47-4.21,0-4.79-2.22-7.01-6.72-7.01Z"/>
    <path d="M358.45,23.53l-16.01,44.35c-1.93,5.26-5.32,6.43-9.17,6.43h-5.61c-4.44,0-6.43-2.4-6.72-5.9l-1.93-24.02c0-.47-.12-.47-.35-.47-.29,0-.35,0-.53.47l-10.4,24.02c-1.46,3.51-4.32,5.9-8.76,5.9h-5.61c-3.86,0-7.01-1.17-7.01-6.43l-.41-44.35c0-.99.76-1.93,1.75-1.93h10.75c1.11,0,1.64.18,1.64,1.46v.12l-.64,35.18v.12c0,.76.18,1.11.35,1.11.29,0,.53-.35.93-1.17l10.75-24.6c1.4-3.21,2.92-4.15,5.9-4.15h7.54c2.92,0,4.15.93,4.44,4.15l1.81,24.31c.12.82.29,1.17.47,1.17.29,0,.53-.47.82-1.17l11.57-34.94c.47-1.4,1.11-1.58,2.22-1.58h11.22c.76,0,1.11.53,1.11,1.17,0,.29,0,.47-.12.76Z"/>
    <path d="M398.25,25.05l-1.29,7.48c-.18.99-.82,1.75-1.81,1.75h-.29c-2.57-.35-10.4-1.17-15.08-1.17h-.35c-2.4,0-5.08.12-5.08,3.21,0,1.11.76,1.93,2.22,2.86l10.23,6.54c5.73,3.68,7.25,7.83,7.25,11.39,0,13.32-10.87,18.06-22.73,18.06-5.08,0-11.86-.76-16.36-2.05-.93-.29-1.4-.82-1.4-1.64v-.47l1.4-7.48c.18-1.11.99-1.75,2.1-1.75h.29c4.85.64,11.39,1.29,15.48,1.29,3.16,0,6.08-.29,6.08-4.15,0-1.17-.76-2.4-2.75-3.68l-10.75-6.89c-4.15-2.69-5.96-6.89-5.96-10.93,0-12.86,10.46-16.54,21.5-16.54,6.43,0,11.51.93,16.01,2.1.93.29,1.4.82,1.4,1.64-.12.18-.12.23-.12.41Z"/>
  </g>
  <g>
    <path d="M62.75,37.92l-1.93,10.99c-3.8,21.5-15.19,29.51-32.49,29.51-12.62,0-22.61-7.48-22.61-22.55,0-2.22.18-4.5.64-7.01l1.93-10.93C12.33,15.14,25.42,8.42,40.78,8.42c12.33,0,22.61,6.72,22.61,22.38,0,2.16-.18,4.56-.64,7.13ZM38.27,22.21c-7.71,0-12.04,4.21-14.08,15.72l-1.93,10.99c-.47,2.45-.64,4.62-.64,6.43,0,6.89,3.16,9.29,9.17,9.29,7.71,0,12.21-4.67,14.14-15.72l1.99-10.99c.35-2.28.64-4.32.64-6.08,0-6.89-3.1-9.64-9.29-9.64Z"/>
    <path d="M112.89,47.68l-1.17,7.19c-2.86,17.12-12.5,23.55-26.47,23.55-2.57,0-5.32-.29-8.18-.64l-2.86,15.89c-.18.99-1.11,1.81-2.1,1.81h-11.16c-.93,0-1.64-.64-1.64-1.58v-.29l11.39-64.51c.29-1.46.76-2.1,3.33-2.69,5.49-1.29,12.86-2.4,19.98-2.4,12.33,0,19.4,7.48,19.4,18.58-.06,1.69-.23,3.33-.53,5.08ZM91.85,36.46c-3.04,0-5.78.18-7.65.47l-5.08,28.69c2.57.35,4.85.53,6.89.53,5.78,0,9.17-2.22,10.75-11.34l1.17-7.19c.29-1.81.47-3.39.47-4.79.06-4.15-1.58-6.37-6.54-6.37Z"/>
    <path d="M152.21,26.71l-1.4,7.48c-.18.99-1.11,1.81-2.1,1.81h-7.54l-4.79,26.76c-.18,1.11-.29,1.93-.29,2.57,0,1.4.64,1.75,2.57,1.75h4.5c.93,0,1.64.35,1.64,1.29v.29l-1.29,7.19c-.18.93-.82,1.64-2.05,1.81-2.86.47-4.79.76-7.48.76-8.36,0-13.09-3.04-13.09-11.04,0-1.4.18-2.92.47-4.67l4.67-26.7-7.19-1.17c-.93-.18-1.58-.76-1.58-1.64v-.29l.99-6.08c.18-.99,1.29-1.93,2.28-1.93h7.36l1.29-7.54c.18-.99,1.11-1.64,2.22-1.81l11.57-1.93h.29c.82,0,1.4.47,1.4,1.29v.29l-1.75,9.76h7.54c.93,0,1.58.64,1.58,1.58.18,0,.18.12.18.18Z"/>
    <path d="M171.9,26.71l-8.65,49.02c-.18.99-1.17,1.81-2.22,1.81h-11.22c-.93,0-1.46-.64-1.46-1.46v-.35l8.65-49.02c.18-.99,1.11-1.81,2.1-1.81h11.22c.93,0,1.58.64,1.58,1.58,0,.06,0,.18,0,.23ZM175.41,8.47l-1.46,8.53c-.18.99-1.17,1.81-2.22,1.81h-11.98c-.93,0-1.46-.64-1.46-1.46v-.35l1.46-8.53c.18-.99,1.17-1.81,2.22-1.81h11.98c.93,0,1.46.64,1.46,1.46v.35Z"/>
  </g>
  <g>
    <path d="M404.47,19.02h-2.28v-.82h5.56v.82h-2.3v6.69h-.98v-6.69Z"/>
    <path d="M414.91,22.4c-.06-1.05-.12-2.31-.11-3.24h-.03c-.26.88-.57,1.82-.95,2.85l-1.33,3.64h-.74l-1.21-3.58c-.36-1.06-.66-2.03-.87-2.92h-.02c-.02.94-.08,2.2-.14,3.32l-.2,3.22h-.93l.52-7.51h1.24l1.28,3.63c.31.93.57,1.75.76,2.53h.03c.19-.76.46-1.58.79-2.53l1.34-3.63h1.24l.47,7.51h-.95l-.19-3.3Z"/>
  </g>
</svg>